<svg xmlns="http://www.w3.org/2000/svg" xmlns:xlink="http://www.w3.org/1999/xlink" viewBox="0 0 96 96" width="96" height="96" preserveAspectRatio="xMidYMid meet" style="width: 100%; height: 100%; transform: translate3d(0px, 0px, 0px); content-visibility: visible;"><defs><clipPath id="__lottie_element_2474"><rect width="96" height="96" x="0" y="0"/></clipPath></defs><g clip-path="url(#__lottie_element_2474)"><g transform="matrix(0.8000000715255737,0,0,0.8000000715255737,26.666399002075195,12.800796508789062)" opacity="1" style="display: block;"><g opacity="1" transform="matrix(1,0,0,1,0,0)"><path stroke-linecap="round" stroke-linejoin="miter" fill-opacity="0" stroke-miterlimit="4" stroke="rgb(0,0,0)" stroke-opacity="1" stroke-width="5" d=" M16.5,16 C16.5,16 36.5,16 36.5,16"/></g><g opacity="1" transform="matrix(1,0,0,1,26.5,44)"><path stroke-linecap="butt" stroke-linejoin="miter" fill-opacity="0" stroke-miterlimit="4" stroke="rgb(0,0,0)" stroke-opacity="1" stroke-width="5" d=" M21.5,19.5 C21.5,19.5 21.5,-31 21.5,-31 C21.5,-35.417999267578125 17.917999267578125,-39 13.5,-39 C13.5,-39 -13.5,-39 -13.5,-39 C-17.917999267578125,-39 -21.5,-35.417999267578125 -21.5,-31 C-21.5,-31 -21.5,19.5 -21.5,19.5 M21.5,19.5 C21.5,19.5 21.5,31 21.5,31 C21.5,35.417999267578125 17.917999267578125,39 13.5,39 C13.5,39 -13.5,39 -13.5,39 C-17.917999267578125,39 -21.5,35.417999267578125 -21.5,31 C-21.5,31 -21.5,19.5 -21.5,19.5"/></g><g opacity="1" transform="matrix(1,0,0,1,26.5,71.99800109863281)"><path fill="rgb(0,0,0)" fill-opacity="1" d=" M2.499000072479248,-2.5 C3.878999948501587,-1.1200000047683716 3.878999948501587,1.1180000305175781 2.499000072479248,2.499000072479248 C1.11899995803833,3.878999948501587 -1.11899995803833,3.878999948501587 -2.499000072479248,2.499000072479248 C-3.880000114440918,1.1180000305175781 -3.880000114440918,-1.1200000047683716 -2.499000072479248,-2.5 C-1.11899995803833,-3.880000114440918 1.11899995803833,-3.880000114440918 2.499000072479248,-2.5z"/></g></g><g transform="matrix(0.8000000715255737,0,0,0.8000000715255737,51.465599060058594,35.72774124145508)" opacity="1" style="display: block;"><g opacity="1" transform="matrix(1,0,0,1,7.184000015258789,10)"><path stroke-linecap="round" stroke-linejoin="miter" fill-opacity="0" stroke-miterlimit="4" stroke="rgb(0,0,0)" stroke-opacity="1" stroke-width="5" d=" M-2.184000015258789,-5 C-2.184000015258789,-5 1.4019999504089355,-1.4140000343322754 1.4019999504089355,-1.4140000343322754 C2.183000087738037,-0.6330000162124634 2.183000087738037,0.6330000162124634 1.4019999504089355,1.4140000343322754 C1.4019999504089355,1.4140000343322754 -2.184000015258789,5 -2.184000015258789,5"/></g></g><g transform="matrix(0.8000000715255737,0,0,0.8000000715255737,43.86640167236328,37.60080337524414)" opacity="1" style="display: block;"><g opacity="1" transform="matrix(1,0,0,1,5,7.5)"><path stroke-linecap="round" stroke-linejoin="miter" fill-opacity="0" stroke-miterlimit="4" stroke="rgb(0,0,0)" stroke-opacity="1" stroke-width="5" d=" M2.5,-5 C2.5,-5 -2.5,5 -2.5,5"/></g></g><g transform="matrix(0.8000000715255737,0,0,0.8000000715255737,32.772796630859375,35.73076248168945)" opacity="1" style="display: block;"><g opacity="1" transform="matrix(1,0,0,1,7.183000087738037,10)"><path stroke-linecap="round" stroke-linejoin="miter" fill-opacity="0" stroke-miterlimit="4" stroke="rgb(0,0,0)" stroke-opacity="1" stroke-width="5" d=" M2.184000015258789,-5 C2.184000015258789,-5 -1.4019999504089355,-1.4140000343322754 -1.4019999504089355,-1.4140000343322754 C-2.183000087738037,-0.6330000162124634 -2.183000087738037,0.6330000162124634 -1.4019999504089355,1.4140000343322754 C-1.4019999504089355,1.4140000343322754 2.184000015258789,5 2.184000015258789,5"/></g></g></g></svg>